<?xml version="1.0" encoding="utf-8" ?><svg xmlns="http://www.w3.org/2000/svg" width="1024" height="1024" viewBox="0 0 1024 1024"><rect width="1024" height="1024" rx="180" fill="#2563eb"/><path fill="#F6F5F5" d="M438.581 273.823C474.776 273.984 511.263 277.35 545.425 290.917C672.598 341.375 712.401 500.863 666.16 620.4C643.85 678.075 605.291 716.638 549.125 741.191C531.968 748.032 514.23 752.242 496.053 755.3C466.814 760.22 436.743 758.566 407.138 758.526L321.043 758.503C325.64 754.78 331.742 750.104 335.907 746.061C352.164 730.282 365.924 710.929 373.72 689.615C384.377 660.478 383.471 632.859 383.339 602.453L383.035 546.33L383.138 418.123C383.149 406.412 383.172 394.4 383.027 382.786C382.76 361.497 383.766 342.399 397.359 324.954C408.65 310.462 421.156 306.908 438.599 304.786L438.581 273.823Z"/><path fill="#2563eb" d="M468.668 306.573C530.924 313.174 557.696 379.605 566.397 433.694C570.118 457.166 572.332 480.851 573.027 504.605C574.444 558.75 567.567 646.57 534.909 691.75C515.849 714.539 497.841 723.582 468.661 729.127C469.819 684.043 469.007 635.628 468.987 590.385L468.668 306.573Z"/><path fill="#F6F5F5" d="M198.229 273.466L414.216 273.511C414.373 278.575 414.409 283.643 414.324 288.709C407.555 290.139 401.477 291.556 395.133 294.429C350.322 314.719 357.39 374.775 357.47 415.422L357.488 558.932L357.502 601.906C357.493 622.671 357.713 639.755 353.485 659.85C338.486 729.773 278.44 769.893 208.22 764.411C167.413 761.225 138.192 748.552 115.825 712.733C97.4125 680.579 102.225 627.03 133.676 604.231C147.913 593.91 162.15 590.141 179.576 592.739C194.942 595.03 208.523 601.972 218.164 614.355C231.358 634.778 232.99 660.106 217.996 680.152C208.787 693.829 181.589 694.885 180.725 713.992C179.301 744.317 222.39 744.003 238.814 729.777C259.98 711.443 259.217 677.752 259.268 652.191C259.296 638.301 259.388 624.5 259.423 610.659L259.556 483.704L259.463 399.486C259.491 362.911 265.491 309.736 220.398 296.076C213.1 293.865 205.892 293.637 198.333 293.125L198.229 273.466Z"/><path fill="#F6F5F5" d="M596.492 273.733L725.422 273.643C751.035 273.666 777.843 273.069 803.325 273.684L803.407 293.069C786.399 294.603 769.188 299.313 757 311.734C736.452 332.674 739.489 365.063 739.499 391.582L739.495 467.519L739.522 732.505C767.174 732.76 798.616 726.984 822.308 712.482C851.286 694.744 873.761 666.105 885.435 634.302C891.377 618.112 895.837 597.984 899.897 581.064C906.082 581.08 912.268 581.057 918.453 580.997C918.396 616.858 916.984 652.281 915.955 688.125L913.646 758.038L586.609 758.209C595.222 751.831 605.104 746.495 613.513 739.861C752.694 630.052 747.797 379.432 593.929 284.501C587.701 280.658 581.093 277.412 574.589 274.135C581.891 274.065 589.192 273.931 596.492 273.733Z"/></svg>
